<svg xmlns="http://www.w3.org/2000/svg" viewBox="0 0 512 512" fill="none">
  <defs>
    <radialGradient id="glow" cx="50%" cy="50%" r="50%">
      <stop offset="0" stop-color="#f7d4a5" stop-opacity="0.55"/>
      <stop offset="1" stop-color="#f7d4a5" stop-opacity="0"/>
    </radialGradient>
  </defs>
  <circle cx="256" cy="256" r="236" stroke="#6e3f2f" stroke-width="6" stroke-opacity="0.55"/>
  <circle cx="256" cy="256" r="196" stroke="#8f5a42" stroke-width="3" stroke-opacity="0.55" stroke-dasharray="10 18"/>
  <circle cx="256" cy="256" r="146" stroke="#bc7b58" stroke-width="2" stroke-opacity="0.58" stroke-dasharray="4 10"/>
  <circle cx="256" cy="256" r="72" fill="url(#glow)"/>
  <path d="M256 70v78M256 364v78M70 256h78M364 256h78" stroke="#6e3f2f" stroke-width="8" stroke-linecap="round" stroke-opacity="0.58"/>
  <path d="M126 126l52 52M334 334l52 52M126 386l52-52M334 178l52-52" stroke="#8f5a42" stroke-width="5" stroke-linecap="round" stroke-opacity="0.52"/>
  <path d="M256 180l22 44 49 7-36 35 9 49-44-23-44 23 9-49-36-35 49-7 22-44z" stroke="#5f2d1f" stroke-width="5" stroke-linejoin="round" stroke-opacity="0.58"/>
  <circle cx="256" cy="256" r="12" fill="#5f2d1f" fill-opacity="0.65"/>
</svg>
